<?xml version="1.0" standalone="no"?>
<!DOCTYPE svg PUBLIC "-//W3C//DTD SVG 20010904//EN"
 "http://www.w3.org/TR/2001/REC-SVG-20010904/DTD/svg10.dtd">
<svg version="1.0" xmlns="http://www.w3.org/2000/svg"
 width="260.000000pt" height="260.000000pt" viewBox="0 0 260.000000 260.000000"
 preserveAspectRatio="xMidYMid meet">
<metadata>
Created by potrace 1.11, written by Peter Selinger 2001-2013
</metadata>
<g transform="translate(0.000000,260.000000) scale(0.100000,-0.100000)"
fill="#000000" stroke="none">
<path d="M1377 2525 c-22 -7 -49 -22 -60 -33 -12 -11 -38 -22 -57 -26 -61 -11
-139 -54 -196 -108 -58 -55 -142 -180 -170 -255 -17 -43 -17 -43 -53 -36 -20
5 -90 8 -156 7 -187 -2 -298 -49 -366 -156 -33 -51 -34 -56 -34 -153 0 -124
21 -185 110 -320 l61 -93 -42 -56 c-139 -186 -178 -367 -108 -495 68 -125 201
-177 436 -169 l123 4 47 -96 c81 -165 189 -273 303 -302 28 -7 54 -19 59 -28
25 -39 111 -119 154 -143 72 -39 165 -61 230 -53 108 13 150 41 249 164 23 29
50 47 94 64 76 29 122 74 165 164 30 62 34 81 34 147 l0 77 36 17 c24 12 54
42 86 89 67 96 73 149 30 283 l-31 94 20 56 c55 150 53 141 40 203 -16 80 -44
141 -73 160 -23 15 -24 18 -17 113 10 128 -9 183 -90 265 -50 52 -90 74 -167
95 -8 2 -8 19 -1 57 15 82 2 142 -39 188 -42 46 -259 207 -324 240 -96 49
-216 63 -293 35z m148 -79 c54 -14 185 -65 197 -75 5 -4 -18 -24 -50 -44 -60
-38 -87 -64 -109 -104 -15 -27 -7 -53 16 -53 23 0 78 35 90 58 6 11 30 30 55
41 68 33 117 22 184 -42 51 -50 52 -52 52 -110 0 -70 -23 -100 -91 -117 -114
-28 -156 -65 -204 -179 -14 -35 -33 -74 -40 -85 -17 -26 -1 -106 21 -106 24 0
53 37 59 77 12 76 25 109 57 142 43 44 73 58 149 70 123 20 127 19 212 -61 96
-92 106 -122 88 -245 l-12 -85 40 -34 c33 -28 42 -44 52 -91 15 -76 6 -164
-23 -220 -32 -63 -115 -121 -185 -130 -63 -7 -90 -30 -73 -62 7 -14 21 -21 40
-21 57 0 129 22 169 51 23 16 45 29 50 29 13 0 25 -103 18 -161 -9 -74 -52
-145 -114 -188 l-52 -36 -1 -66 c-1 -159 -94 -309 -191 -309 -25 0 -69 -36
-69 -56 0 -23 -53 -75 -104 -102 -46 -24 -62 -26 -156 -27 -81 0 -112 4 -136
17 -45 25 -90 73 -125 132 l-30 51 1 580 c1 319 1 654 0 745 -1 230 16 275
116 307 52 16 55 19 52 47 -3 28 -7 31 -41 34 -24 2 -54 -4 -77 -16 l-38 -19
-8 96 c-9 126 0 271 20 309 36 69 90 86 191 58z m-245 -291 l0 -214 -67 26
c-38 14 -104 36 -147 49 -44 13 -82 26 -85 30 -11 10 78 168 124 221 41 47
129 103 162 103 10 0 13 -45 13 -215z m-446 -186 c3 -3 -3 -40 -14 -83 -10
-42 -25 -113 -32 -157 l-13 -81 -70 -56 c-38 -31 -96 -80 -127 -110 l-57 -54
-31 44 c-43 58 -84 141 -104 207 -43 147 12 244 164 287 44 13 272 15 284 3z
m202 -43 c142 -43 139 -36 38 -91 -49 -27 -109 -61 -133 -77 -25 -15 -48 -28
-52 -28 -7 0 15 103 37 173 9 26 19 47 23 47 4 0 43 -11 87 -24z m244 -231 c0
-122 -2 -135 -17 -135 -10 0 -42 -11 -70 -25 -123 -57 -159 -220 -71 -321 34
-38 95 -74 128 -74 19 0 20 -6 20 -135 0 -74 -3 -135 -6 -135 -17 0 -215 112
-302 170 -90 60 -98 68 -104 105 -9 52 -10 290 -1 379 l6 69 96 62 c73 48 301
173 319 175 1 0 2 -61 2 -135z m-525 -344 l0 -159 -45 38 c-25 21 -63 57 -85
80 l-40 42 83 79 c46 43 84 79 85 79 2 0 3 -71 2 -159z m-28 -261 c39 -33 43
-40 53 -105 5 -38 20 -110 31 -158 12 -48 18 -91 14 -95 -3 -4 -61 -7 -128 -6
-139 0 -213 21 -275 78 -89 82 -66 246 58 419 l42 58 82 -78 c44 -43 100 -94
123 -113z m340 -226 l93 -51 -88 -26 c-147 -45 -139 -45 -151 0 -18 68 -41
168 -41 181 0 8 19 0 48 -20 26 -18 89 -56 139 -84z m203 -324 c0 -205 -1
-210 -20 -210 -59 0 -154 79 -214 179 -37 60 -71 139 -64 146 2 3 42 16 89 29
46 14 109 34 139 45 30 11 58 20 63 20 4 1 7 -93 7 -209z"/>
<path d="M2022 1743 c-5 -10 -13 -40 -17 -68 -13 -91 -64 -159 -156 -206 -68
-34 -122 -28 -226 25 -49 25 -100 46 -113 46 -20 0 -22 -3 -16 -32 8 -41 50
-84 95 -99 87 -28 111 -47 140 -112 16 -34 37 -69 47 -78 34 -28 116 -69 139
-69 42 0 85 12 85 25 0 20 -43 52 -80 60 -52 11 -66 21 -101 72 -31 44 -31 47
-13 60 10 8 42 21 71 29 77 23 121 71 171 190 46 109 47 112 30 149 -13 29
-43 33 -56 8z"/>
<path d="M1418 1093 c-18 -5 -23 -29 -10 -49 11 -18 43 -31 92 -39 86 -14 113
-36 159 -128 32 -64 42 -92 39 -122 -3 -34 -7 -39 -43 -52 -93 -32 -151 -128
-169 -280 l-7 -53 29 0 c37 0 48 14 55 73 16 119 106 203 240 222 52 8 63 20
53 60 -5 21 -12 25 -45 25 -37 0 -38 1 -39 38 -3 79 -30 149 -74 188 -12 12
-60 45 -106 73 -82 50 -117 59 -174 44z"/>
</g>
</svg>
